# xmcd CD database file
#
# Track frame offsets:
#	150
#	21231
#	56158
#	73788
#	95368
#	132365
#	160341
#	185849
#	205675
#	229850
#	271112
#	283385
#	310229
#
# Disc length: 4316 seconds
#
# Revision: 0
# Processed by: cddbd v1.5.1PL2 Copyright (c) Steve Scherf et al.
# Submitted via: CDex 1.51
#
DISCID=c510da0d
DTITLE=Various Artist - Blue Note: A Story of Jazz CD3
DYEAR=2005
DGENRE=Jazz
TTITLE0=Us3 - Cantaloop
TTITLE1=Madlib - Steppin' Into Tomorrow
TTITLE2=Hero-Horace Silver - Won't You Open Up Your Senses
TTITLE3=The Troublemakers - Lemon
TTITLE4=Erik Truffaz - Bending New Corners
TTITLE5=Marc Moulin - Silver (Who Stole The Groove)
TTITLE6=Nicola Conte - Kind Of Sunshine
TTITLE7=Medeski, Martin and Wood - Anonymous Skulls
TTITLE8=Soulive - Romantic
TTITLE9=Jason Moran - Planet Rock (Live)
TTITLE10=Amos Lee - Colors
TTITLE11=Angela McCluskey - Don't Explain
TTITLE12=Raul Midon - Devil May Care 
EXTD=YEAR: 2005
EXTT0=
EXTT1=
EXTT2=
EXTT3=
EXTT4=
EXTT5=
EXTT6=
EXTT7=
EXTT8=
EXTT9=
EXTT10=
EXTT11=
EXTT12=
PLAYORDER=
